<svg width="375" height="350" viewBox="0 0 375 350" fill="none" xmlns="http://www.w3.org/2000/svg">
<rect width="375" height="350" fill="#04D361"/>
<path d="M297.631 296.361L291.972 301.966" stroke="#24EF7F" stroke-width="3" stroke-miterlimit="10" stroke-linecap="round" stroke-linejoin="round"/>
<path d="M297.631 301.966L291.972 296.361" stroke="#24EF7F" stroke-width="2" stroke-miterlimit="10" stroke-linecap="round" stroke-linejoin="round"/>
<path d="M67.0021 218.208L59.0002 218.208" stroke="#24EF7F" stroke-width="2" stroke-miterlimit="10" stroke-linecap="round" stroke-linejoin="round"/>
<path d="M63.0021 222.181L63.0021 214.247" stroke="#24EF7F" stroke-width="2" stroke-miterlimit="10" stroke-linecap="round" stroke-linejoin="round"/>
<path d="M229.002 120.962L221 120.962" stroke="#24EF7F" stroke-width="2" stroke-miterlimit="10" stroke-linecap="round" stroke-linejoin="round"/>
<path d="M225.002 124.935L225.002 117" stroke="#24EF7F" stroke-width="2" stroke-miterlimit="10" stroke-linecap="round" stroke-linejoin="round"/>
<path d="M301.863 109.633C299.183 109.633 297 107.48 297 104.817C297 102.162 299.174 100 301.863 100C304.543 100 306.726 102.153 306.726 104.817C306.717 107.48 304.543 109.633 301.863 109.633Z" stroke="#24EF7F" stroke-width="2" stroke-miterlimit="10" stroke-linecap="round" stroke-linejoin="round"/>
<path d="M101.621 304C98.9407 304 96.7575 301.847 96.7575 299.184C96.7575 296.53 98.9314 294.367 101.621 294.367C104.3 294.367 106.484 296.52 106.484 299.184C106.474 301.847 104.3 304 101.621 304Z" stroke="#24EF7F" stroke-width="2" stroke-miterlimit="10" stroke-linecap="round" stroke-linejoin="round"/>
<path d="M107.947 102.897C107.947 103.861 108.736 104.642 109.708 104.642C110.681 104.642 111.47 103.861 111.47 102.897C111.47 101.934 110.681 101.153 109.708 101.153C108.736 101.153 107.947 101.934 107.947 102.897Z" fill="#24EF7F"/>
<path d="M107.947 115.071C107.947 116.035 108.736 116.816 109.708 116.816C110.681 116.816 111.47 116.035 111.47 115.071C111.47 114.108 110.681 113.327 109.708 113.327C108.736 113.327 107.947 114.108 107.947 115.071Z" fill="#24EF7F"/>
<path d="M107.947 127.256C107.947 128.22 108.736 129.001 109.708 129.001C110.681 129.001 111.47 128.22 111.47 127.256C111.47 126.293 110.681 125.512 109.708 125.512C108.736 125.512 107.947 126.293 107.947 127.256Z" fill="#24EF7F"/>
<path d="M107.947 139.431C107.947 140.395 108.736 141.176 109.708 141.176C110.681 141.176 111.47 140.395 111.47 139.431C111.47 138.468 110.681 137.687 109.708 137.687C108.736 137.687 107.947 138.468 107.947 139.431Z" fill="#24EF7F"/>
<path d="M107.947 151.615C107.947 152.579 108.736 153.36 109.708 153.36C110.681 153.36 111.47 152.579 111.47 151.615C111.47 150.652 110.681 149.871 109.708 149.871C108.736 149.871 107.947 150.652 107.947 151.615Z" fill="#24EF7F"/>
<path d="M95.6537 102.897C95.6537 103.861 96.4422 104.642 97.4149 104.642C98.3877 104.642 99.1762 103.861 99.1762 102.897C99.1762 101.934 98.3877 101.153 97.4149 101.153C96.4422 101.153 95.6537 101.934 95.6537 102.897Z" fill="#24EF7F"/>
<path d="M95.6537 115.072C95.6537 116.035 96.4422 116.816 97.4149 116.816C98.3877 116.816 99.1762 116.035 99.1762 115.072C99.1762 114.108 98.3877 113.327 97.4149 113.327C96.4422 113.327 95.6537 114.108 95.6537 115.072Z" fill="#24EF7F"/>
<path d="M95.6537 127.256C95.6537 128.22 96.4422 129.001 97.4149 129.001C98.3877 129.001 99.1762 128.22 99.1762 127.256C99.1762 126.293 98.3877 125.512 97.4149 125.512C96.4422 125.512 95.6537 126.293 95.6537 127.256Z" fill="#24EF7F"/>
<path d="M95.6537 139.431C95.6537 140.394 96.4422 141.175 97.4149 141.175C98.3877 141.175 99.1762 140.394 99.1762 139.431C99.1762 138.468 98.3877 137.687 97.4149 137.687C96.4422 137.687 95.6537 138.468 95.6537 139.431Z" fill="#24EF7F"/>
<path d="M95.6537 151.615C95.6537 152.579 96.4422 153.36 97.4149 153.36C98.3877 153.36 99.1762 152.579 99.1762 151.615C99.1762 150.652 98.3877 149.871 97.4149 149.871C96.4422 149.871 95.6537 150.652 95.6537 151.615Z" fill="#24EF7F"/>
<path d="M83.351 102.897C83.351 103.861 84.1395 104.642 85.1122 104.642C86.0849 104.642 86.8735 103.861 86.8735 102.897C86.8735 101.934 86.0849 101.153 85.1122 101.153C84.1395 101.153 83.351 101.934 83.351 102.897Z" fill="#24EF7F"/>
<path d="M83.351 115.072C83.351 116.035 84.1395 116.816 85.1122 116.816C86.0849 116.816 86.8735 116.035 86.8735 115.072C86.8735 114.108 86.0849 113.327 85.1122 113.327C84.1395 113.327 83.351 114.108 83.351 115.072Z" fill="#24EF7F"/>
<path d="M83.351 127.256C83.351 128.22 84.1395 129.001 85.1122 129.001C86.0849 129.001 86.8735 128.22 86.8735 127.256C86.8735 126.293 86.0849 125.512 85.1122 125.512C84.1395 125.512 83.351 126.293 83.351 127.256Z" fill="#24EF7F"/>
<path d="M83.351 139.431C83.351 140.394 84.1395 141.175 85.1122 141.175C86.0849 141.175 86.8735 140.394 86.8735 139.431C86.8735 138.468 86.0849 137.687 85.1122 137.687C84.1395 137.687 83.351 138.468 83.351 139.431Z" fill="#24EF7F"/>
<path d="M83.351 151.615C83.351 152.579 84.1395 153.36 85.1122 153.36C86.0849 153.36 86.8735 152.579 86.8735 151.615C86.8735 150.652 86.0849 149.871 85.1122 149.871C84.1395 149.871 83.351 150.652 83.351 151.615Z" fill="#24EF7F"/>
<path d="M71.0576 102.897C71.0576 103.861 71.8462 104.642 72.8189 104.642C73.7916 104.642 74.5801 103.861 74.5801 102.897C74.5801 101.934 73.7916 101.153 72.8189 101.153C71.8462 101.153 71.0576 101.934 71.0576 102.897Z" fill="#24EF7F"/>
<path d="M71.0576 115.072C71.0576 116.035 71.8462 116.816 72.8189 116.816C73.7916 116.816 74.5801 116.035 74.5801 115.072C74.5801 114.108 73.7916 113.327 72.8189 113.327C71.8462 113.327 71.0576 114.108 71.0576 115.072Z" fill="#24EF7F"/>
<path d="M71.0576 127.256C71.0576 128.22 71.8462 129.001 72.8189 129.001C73.7916 129.001 74.5801 128.22 74.5801 127.256C74.5801 126.293 73.7916 125.512 72.8189 125.512C71.8462 125.512 71.0576 126.293 71.0576 127.256Z" fill="#24EF7F"/>
<path d="M71.0576 139.431C71.0576 140.394 71.8462 141.175 72.8189 141.175C73.7916 141.175 74.5801 140.394 74.5801 139.431C74.5801 138.468 73.7916 137.687 72.8189 137.687C71.8462 137.687 71.0576 138.468 71.0576 139.431Z" fill="#24EF7F"/>
<path d="M71.0576 151.615C71.0576 152.579 71.8462 153.36 72.8189 153.36C73.7916 153.36 74.5801 152.579 74.5801 151.615C74.5801 150.652 73.7916 149.871 72.8189 149.871C71.8462 149.871 71.0576 150.652 71.0576 151.615Z" fill="#24EF7F"/>
<path d="M313.477 205.703C313.477 206.667 314.266 207.448 315.239 207.448C316.211 207.448 317 206.667 317 205.703C317 204.74 316.211 203.959 315.239 203.959C314.266 203.959 313.477 204.74 313.477 205.703Z" fill="#24EF7F"/>
<path d="M313.478 217.878C313.478 218.841 314.266 219.622 315.239 219.622C316.211 219.622 317 218.841 317 217.878C317 216.915 316.211 216.134 315.239 216.134C314.266 216.134 313.478 216.915 313.478 217.878Z" fill="#24EF7F"/>
<path d="M313.478 230.062C313.478 231.025 314.266 231.806 315.239 231.806C316.211 231.806 317 231.025 317 230.062C317 229.099 316.211 228.318 315.239 228.318C314.266 228.318 313.478 229.099 313.478 230.062Z" fill="#24EF7F"/>
<path d="M301.175 205.703C301.175 206.666 301.963 207.447 302.936 207.447C303.909 207.447 304.697 206.666 304.697 205.703C304.697 204.74 303.909 203.959 302.936 203.959C301.963 203.959 301.175 204.74 301.175 205.703Z" fill="#24EF7F"/>
<path d="M301.175 217.878C301.175 218.841 301.963 219.622 302.936 219.622C303.909 219.622 304.697 218.841 304.697 217.878C304.697 216.914 303.909 216.133 302.936 216.133C301.963 216.133 301.175 216.914 301.175 217.878Z" fill="#24EF7F"/>
<path d="M301.175 230.062C301.175 231.026 301.963 231.807 302.936 231.807C303.909 231.807 304.697 231.026 304.697 230.062C304.697 229.099 303.909 228.318 302.936 228.318C301.963 228.318 301.175 229.099 301.175 230.062Z" fill="#24EF7F"/>
</svg>

