<svg width="1440" height="820" viewBox="0 0 1440 820" fill="none" xmlns="http://www.w3.org/2000/svg">
<rect width="1440" height="820" fill="#8257E5"/>
<path d="M1180.77 304.235C1180.77 309.877 1176.21 314.452 1170.57 314.452C1164.94 314.452 1160.37 309.877 1160.37 304.235C1160.37 298.592 1164.94 294.018 1170.57 294.018C1176.19 294.018 1180.77 298.592 1180.77 304.235Z" stroke="#04D361" stroke-width="3" stroke-miterlimit="10" stroke-linecap="round" stroke-linejoin="round"/>
<path d="M1177.95 311.283L1185.15 318.509" stroke="#04D361" stroke-width="3" stroke-miterlimit="10" stroke-linecap="round" stroke-linejoin="round"/>
<path d="M436.848 274.154L447.582 284.903" stroke="#04D361" stroke-width="3" stroke-miterlimit="10" stroke-linecap="round" stroke-linejoin="round"/>
<path d="M447.582 274.154L436.848 284.903" stroke="#04D361" stroke-width="3" stroke-miterlimit="10" stroke-linecap="round" stroke-linejoin="round"/>
<path d="M1052.16 527.633L1062.89 538.382" stroke="#04D361" stroke-width="3" stroke-miterlimit="10" stroke-linecap="round" stroke-linejoin="round"/>
<path d="M1062.89 527.633L1052.16 538.382" stroke="#04D361" stroke-width="3" stroke-miterlimit="10" stroke-linecap="round" stroke-linejoin="round"/>
<path d="M465.657 622.133V637.333" stroke="#04D361" stroke-width="3" stroke-miterlimit="10" stroke-linecap="round" stroke-linejoin="round"/>
<path d="M473.266 629.732H458.068" stroke="#04D361" stroke-width="3" stroke-miterlimit="10" stroke-linecap="round" stroke-linejoin="round"/>
<path d="M260.699 371.247C260.699 376.337 256.575 380.485 251.473 380.485C246.39 380.485 242.248 376.355 242.248 371.247C242.248 366.156 246.372 362.009 251.473 362.009C256.575 362.027 260.699 366.156 260.699 371.247Z" stroke="#04D361" stroke-width="3" stroke-miterlimit="10" stroke-linecap="round" stroke-linejoin="round"/>
<path d="M803.628 132.056C803.628 137.147 799.504 141.294 794.403 141.294C789.319 141.294 785.177 137.165 785.177 132.056C785.177 126.966 789.301 122.818 794.403 122.818C799.504 122.836 803.628 126.966 803.628 132.056Z" stroke="#04D361" stroke-width="3" stroke-miterlimit="10" stroke-linecap="round" stroke-linejoin="round"/>
<path d="M938.971 674.585C938.971 679.676 934.847 683.823 929.746 683.823C924.662 683.823 920.521 679.693 920.521 674.585C920.521 669.494 924.644 665.347 929.746 665.347C934.847 665.365 938.971 669.494 938.971 674.585Z" stroke="#04D361" stroke-width="3" stroke-miterlimit="10" stroke-linecap="round" stroke-linejoin="round"/>
<path d="M164.146 498.691C165.991 498.691 167.487 497.194 167.487 495.346C167.487 493.498 165.991 492 164.146 492C162.301 492 160.805 493.498 160.805 495.346C160.805 497.194 162.301 498.691 164.146 498.691Z" fill="#9871F5"/>
<path d="M187.484 498.691C189.329 498.691 190.825 497.194 190.825 495.346C190.825 493.498 189.329 492 187.484 492C185.638 492 184.143 493.498 184.143 495.346C184.143 497.194 185.638 498.691 187.484 498.691Z" fill="#9871F5"/>
<path d="M210.805 498.691C212.65 498.691 214.146 497.194 214.146 495.346C214.146 493.498 212.65 492 210.805 492C208.96 492 207.464 493.498 207.464 495.346C207.464 497.194 208.96 498.691 210.805 498.691Z" fill="#9871F5"/>
<path d="M234.144 498.691C235.99 498.691 237.486 497.194 237.486 495.346C237.486 493.498 235.99 492 234.144 492C232.299 492 230.803 493.498 230.803 495.346C230.803 497.194 232.299 498.691 234.144 498.691Z" fill="#9871F5"/>
<path d="M257.465 498.691C259.31 498.691 260.806 497.194 260.806 495.346C260.806 493.498 259.31 492 257.465 492C255.619 492 254.124 493.498 254.124 495.346C254.124 497.194 255.619 498.691 257.465 498.691Z" fill="#9871F5"/>
<path d="M280.804 498.691C282.649 498.691 284.145 497.194 284.145 495.346C284.145 493.498 282.649 492 280.804 492C278.958 492 277.462 493.498 277.462 495.346C277.462 497.194 278.958 498.691 280.804 498.691Z" fill="#9871F5"/>
<path d="M164.145 522.044C165.991 522.044 167.486 520.546 167.486 518.698C167.486 516.851 165.991 515.353 164.145 515.353C162.3 515.353 160.804 516.851 160.804 518.698C160.804 520.546 162.3 522.044 164.145 522.044Z" fill="#9871F5"/>
<path d="M187.484 522.044C189.329 522.044 190.825 520.546 190.825 518.698C190.825 516.851 189.329 515.353 187.484 515.353C185.638 515.353 184.143 516.851 184.143 518.698C184.143 520.546 185.638 522.044 187.484 522.044Z" fill="#9871F5"/>
<path d="M210.805 522.044C212.651 522.044 214.147 520.546 214.147 518.698C214.147 516.851 212.651 515.353 210.805 515.353C208.96 515.353 207.464 516.851 207.464 518.698C207.464 520.546 208.96 522.044 210.805 522.044Z" fill="#9871F5"/>
<path d="M234.144 522.044C235.99 522.044 237.486 520.546 237.486 518.698C237.486 516.851 235.99 515.353 234.144 515.353C232.299 515.353 230.803 516.851 230.803 518.698C230.803 520.546 232.299 522.044 234.144 522.044Z" fill="#9871F5"/>
<path d="M257.465 522.044C259.31 522.044 260.806 520.546 260.806 518.698C260.806 516.851 259.31 515.353 257.465 515.353C255.619 515.353 254.124 516.851 254.124 518.698C254.124 520.546 255.619 522.044 257.465 522.044Z" fill="#9871F5"/>
<path d="M280.804 522.044C282.649 522.044 284.145 520.546 284.145 518.698C284.145 516.851 282.649 515.353 280.804 515.353C278.958 515.353 277.462 516.851 277.462 518.698C277.462 520.546 278.958 522.044 280.804 522.044Z" fill="#9871F5"/>
<path d="M164.145 545.415C165.991 545.415 167.486 543.917 167.486 542.069C167.486 540.221 165.991 538.724 164.145 538.724C162.3 538.724 160.804 540.221 160.804 542.069C160.804 543.917 162.3 545.415 164.145 545.415Z" fill="#9871F5"/>
<path d="M187.484 545.415C189.329 545.415 190.825 543.917 190.825 542.069C190.825 540.221 189.329 538.724 187.484 538.724C185.638 538.724 184.143 540.221 184.143 542.069C184.143 543.917 185.638 545.415 187.484 545.415Z" fill="#9871F5"/>
<path d="M210.805 545.415C212.651 545.415 214.147 543.917 214.147 542.069C214.147 540.221 212.651 538.724 210.805 538.724C208.96 538.724 207.464 540.221 207.464 542.069C207.464 543.917 208.96 545.415 210.805 545.415Z" fill="#9871F5"/>
<path d="M234.144 545.415C235.99 545.415 237.486 543.917 237.486 542.069C237.486 540.221 235.99 538.724 234.144 538.724C232.299 538.724 230.803 540.221 230.803 542.069C230.803 543.917 232.299 545.415 234.144 545.415Z" fill="#9871F5"/>
<path d="M257.465 545.415C259.31 545.415 260.806 543.917 260.806 542.069C260.806 540.221 259.31 538.724 257.465 538.724C255.619 538.724 254.124 540.221 254.124 542.069C254.124 543.917 255.619 545.415 257.465 545.415Z" fill="#9871F5"/>
<path d="M280.804 545.415C282.649 545.415 284.145 543.917 284.145 542.069C284.145 540.221 282.649 538.724 280.804 538.724C278.958 538.724 277.462 540.221 277.462 542.069C277.462 543.917 278.958 545.415 280.804 545.415Z" fill="#9871F5"/>
<path d="M164.145 568.768C165.991 568.768 167.486 567.27 167.486 565.422C167.486 563.574 165.991 562.076 164.145 562.076C162.3 562.076 160.804 563.574 160.804 565.422C160.804 567.27 162.3 568.768 164.145 568.768Z" fill="#9871F5"/>
<path d="M187.484 568.768C189.329 568.768 190.825 567.27 190.825 565.422C190.825 563.574 189.329 562.076 187.484 562.076C185.638 562.076 184.143 563.574 184.143 565.422C184.143 567.27 185.638 568.768 187.484 568.768Z" fill="#9871F5"/>
<path d="M210.805 568.768C212.651 568.768 214.147 567.27 214.147 565.422C214.147 563.574 212.651 562.076 210.805 562.076C208.96 562.076 207.464 563.574 207.464 565.422C207.464 567.27 208.96 568.768 210.805 568.768Z" fill="#9871F5"/>
<path d="M234.144 568.768C235.99 568.768 237.486 567.27 237.486 565.422C237.486 563.574 235.99 562.076 234.144 562.076C232.299 562.076 230.803 563.574 230.803 565.422C230.803 567.27 232.299 568.768 234.144 568.768Z" fill="#9871F5"/>
<path d="M257.465 568.768C259.31 568.768 260.806 567.27 260.806 565.422C260.806 563.574 259.31 562.076 257.465 562.076C255.619 562.076 254.124 563.574 254.124 565.422C254.124 567.27 255.619 568.768 257.465 568.768Z" fill="#9871F5"/>
<path d="M280.804 568.768C282.649 568.768 284.145 567.27 284.145 565.422C284.145 563.574 282.649 562.076 280.804 562.076C278.958 562.076 277.462 563.574 277.462 565.422C277.462 567.27 278.958 568.768 280.804 568.768Z" fill="#9871F5"/>
<path d="M933.976 265.618C935.822 265.618 937.318 264.12 937.318 262.272C937.318 260.424 935.822 258.926 933.976 258.926C932.131 258.926 930.635 260.424 930.635 262.272C930.635 264.12 932.131 265.618 933.976 265.618Z" fill="#9871F5"/>
<path d="M957.297 265.618C959.142 265.618 960.638 264.12 960.638 262.272C960.638 260.424 959.142 258.926 957.297 258.926C955.452 258.926 953.956 260.424 953.956 262.272C953.956 264.12 955.452 265.618 957.297 265.618Z" fill="#9871F5"/>
<path d="M980.636 265.618C982.481 265.618 983.977 264.12 983.977 262.272C983.977 260.424 982.481 258.926 980.636 258.926C978.79 258.926 977.294 260.424 977.294 262.272C977.294 264.12 978.79 265.618 980.636 265.618Z" fill="#9871F5"/>
<path d="M933.976 288.988C935.821 288.988 937.317 287.49 937.317 285.642C937.317 283.795 935.821 282.297 933.976 282.297C932.131 282.297 930.635 283.795 930.635 285.642C930.635 287.49 932.131 288.988 933.976 288.988Z" fill="#9871F5"/>
<path d="M957.297 288.988C959.142 288.988 960.638 287.49 960.638 285.643C960.638 283.795 959.142 282.297 957.297 282.297C955.452 282.297 953.956 283.795 953.956 285.643C953.956 287.49 955.452 288.988 957.297 288.988Z" fill="#9871F5"/>
<path d="M980.636 288.988C982.481 288.988 983.977 287.49 983.977 285.643C983.977 283.795 982.481 282.297 980.636 282.297C978.79 282.297 977.294 283.795 977.294 285.643C977.294 287.49 978.79 288.988 980.636 288.988Z" fill="#9871F5"/>
<path d="M421.705 143.433C423.55 143.433 425.046 141.935 425.046 140.088C425.046 138.24 423.55 136.742 421.705 136.742C419.86 136.742 418.364 138.24 418.364 140.088C418.364 141.935 419.86 143.433 421.705 143.433Z" fill="#9871F5"/>
<path d="M445.025 143.433C446.87 143.433 448.366 141.935 448.366 140.088C448.366 138.24 446.87 136.742 445.025 136.742C443.18 136.742 441.684 138.24 441.684 140.088C441.684 141.935 443.18 143.433 445.025 143.433Z" fill="#9871F5"/>
<path d="M468.364 143.433C470.209 143.433 471.705 141.935 471.705 140.088C471.705 138.24 470.209 136.742 468.364 136.742C466.518 136.742 465.022 138.24 465.022 140.088C465.022 141.935 466.518 143.433 468.364 143.433Z" fill="#9871F5"/>
<path d="M421.704 166.804C423.55 166.804 425.046 165.306 425.046 163.458C425.046 161.61 423.55 160.112 421.704 160.112C419.859 160.112 418.363 161.61 418.363 163.458C418.363 165.306 419.859 166.804 421.704 166.804Z" fill="#9871F5"/>
<path d="M445.025 166.804C446.87 166.804 448.366 165.306 448.366 163.458C448.366 161.61 446.87 160.112 445.025 160.112C443.18 160.112 441.684 161.61 441.684 163.458C441.684 165.306 443.18 166.804 445.025 166.804Z" fill="#9871F5"/>
<path d="M468.365 166.804C470.21 166.804 471.706 165.306 471.706 163.458C471.706 161.61 470.21 160.112 468.365 160.112C466.519 160.112 465.023 161.61 465.023 163.458C465.023 165.306 466.519 166.804 468.365 166.804Z" fill="#9871F5"/>
<path d="M1276.66 498.691C1278.5 498.691 1280 497.194 1280 495.346C1280 493.498 1278.5 492 1276.66 492C1274.81 492 1273.32 493.498 1273.32 495.346C1273.32 497.194 1274.81 498.691 1276.66 498.691Z" fill="#9871F5"/>
<path d="M1276.66 522.062C1278.5 522.062 1280 520.564 1280 518.716C1280 516.869 1278.5 515.371 1276.66 515.371C1274.81 515.371 1273.32 516.869 1273.32 518.716C1273.32 520.564 1274.81 522.062 1276.66 522.062Z" fill="#9871F5"/>
<path d="M1276.66 545.415C1278.5 545.415 1280 543.917 1280 542.069C1280 540.221 1278.5 538.723 1276.66 538.723C1274.81 538.723 1273.32 540.221 1273.32 542.069C1273.32 543.917 1274.81 545.415 1276.66 545.415Z" fill="#9871F5"/>
<path d="M1276.66 568.786C1278.5 568.786 1280 567.288 1280 565.44C1280 563.592 1278.5 562.094 1276.66 562.094C1274.81 562.094 1273.32 563.592 1273.32 565.44C1273.32 567.288 1274.81 568.786 1276.66 568.786Z" fill="#9871F5"/>
<path d="M1276.66 592.138C1278.5 592.138 1280 590.641 1280 588.793C1280 586.945 1278.5 585.447 1276.66 585.447C1274.81 585.447 1273.32 586.945 1273.32 588.793C1273.32 590.641 1274.81 592.138 1276.66 592.138Z" fill="#9871F5"/>
<path d="M1276.66 615.509C1278.5 615.509 1280 614.011 1280 612.163C1280 610.315 1278.5 608.818 1276.66 608.818C1274.81 608.818 1273.32 610.315 1273.32 612.163C1273.32 614.011 1274.81 615.509 1276.66 615.509Z" fill="#9871F5"/>
<path d="M1276.66 638.862C1278.5 638.862 1280 637.364 1280 635.516C1280 633.668 1278.5 632.17 1276.66 632.17C1274.81 632.17 1273.32 633.668 1273.32 635.516C1273.32 637.364 1274.81 638.862 1276.66 638.862Z" fill="#9871F5"/>
<path d="M1253.32 498.691C1255.16 498.691 1256.66 497.194 1256.66 495.346C1256.66 493.498 1255.16 492 1253.32 492C1251.47 492 1249.98 493.498 1249.98 495.346C1249.98 497.194 1251.47 498.691 1253.32 498.691Z" fill="#9871F5"/>
<path d="M1253.32 522.062C1255.16 522.062 1256.66 520.564 1256.66 518.716C1256.66 516.869 1255.16 515.371 1253.32 515.371C1251.47 515.371 1249.98 516.869 1249.98 518.716C1249.98 520.564 1251.47 522.062 1253.32 522.062Z" fill="#9871F5"/>
<path d="M1253.32 545.415C1255.16 545.415 1256.66 543.917 1256.66 542.069C1256.66 540.221 1255.16 538.723 1253.32 538.723C1251.47 538.723 1249.98 540.221 1249.98 542.069C1249.98 543.917 1251.47 545.415 1253.32 545.415Z" fill="#9871F5"/>
<path d="M1253.32 568.786C1255.16 568.786 1256.66 567.288 1256.66 565.44C1256.66 563.592 1255.16 562.094 1253.32 562.094C1251.47 562.094 1249.98 563.592 1249.98 565.44C1249.98 567.288 1251.47 568.786 1253.32 568.786Z" fill="#9871F5"/>
<path d="M1253.32 592.138C1255.16 592.138 1256.66 590.641 1256.66 588.793C1256.66 586.945 1255.16 585.447 1253.32 585.447C1251.47 585.447 1249.98 586.945 1249.98 588.793C1249.98 590.641 1251.47 592.138 1253.32 592.138Z" fill="#9871F5"/>
<path d="M1253.32 615.509C1255.16 615.509 1256.66 614.011 1256.66 612.163C1256.66 610.315 1255.16 608.818 1253.32 608.818C1251.47 608.818 1249.98 610.315 1249.98 612.163C1249.98 614.011 1251.47 615.509 1253.32 615.509Z" fill="#9871F5"/>
<path d="M1253.32 638.862C1255.16 638.862 1256.66 637.364 1256.66 635.516C1256.66 633.668 1255.16 632.17 1253.32 632.17C1251.47 632.17 1249.98 633.668 1249.98 635.516C1249.98 637.364 1251.47 638.862 1253.32 638.862Z" fill="#9871F5"/>
<path d="M1230 498.691C1231.84 498.691 1233.34 497.194 1233.34 495.346C1233.34 493.498 1231.84 492 1230 492C1228.15 492 1226.66 493.498 1226.66 495.346C1226.66 497.194 1228.15 498.691 1230 498.691Z" fill="#9871F5"/>
<path d="M1230 522.062C1231.84 522.062 1233.34 520.564 1233.34 518.716C1233.34 516.869 1231.84 515.371 1230 515.371C1228.15 515.371 1226.66 516.869 1226.66 518.716C1226.66 520.564 1228.15 522.062 1230 522.062Z" fill="#9871F5"/>
<path d="M1230 545.415C1231.84 545.415 1233.34 543.917 1233.34 542.069C1233.34 540.221 1231.84 538.723 1230 538.723C1228.15 538.723 1226.66 540.221 1226.66 542.069C1226.66 543.917 1228.15 545.415 1230 545.415Z" fill="#9871F5"/>
<path d="M1230 568.786C1231.84 568.786 1233.34 567.288 1233.34 565.44C1233.34 563.592 1231.84 562.094 1230 562.094C1228.15 562.094 1226.66 563.592 1226.66 565.44C1226.66 567.288 1228.15 568.786 1230 568.786Z" fill="#9871F5"/>
<path d="M1230 592.138C1231.84 592.138 1233.34 590.641 1233.34 588.793C1233.34 586.945 1231.84 585.447 1230 585.447C1228.15 585.447 1226.66 586.945 1226.66 588.793C1226.66 590.641 1228.15 592.138 1230 592.138Z" fill="#9871F5"/>
<path d="M1230 615.509C1231.84 615.509 1233.34 614.011 1233.34 612.163C1233.34 610.315 1231.84 608.818 1230 608.818C1228.15 608.818 1226.66 610.315 1226.66 612.163C1226.66 614.011 1228.15 615.509 1230 615.509Z" fill="#9871F5"/>
<path d="M1230 638.862C1231.84 638.862 1233.34 637.364 1233.34 635.516C1233.34 633.668 1231.84 632.17 1230 632.17C1228.15 632.17 1226.66 633.668 1226.66 635.516C1226.66 637.364 1228.15 638.862 1230 638.862Z" fill="#9871F5"/>
<path d="M1206.66 498.691C1208.51 498.691 1210 497.194 1210 495.346C1210 493.498 1208.51 492 1206.66 492C1204.82 492 1203.32 493.498 1203.32 495.346C1203.32 497.194 1204.82 498.691 1206.66 498.691Z" fill="#9871F5"/>
<path d="M1206.66 522.062C1208.5 522.062 1210 520.564 1210 518.716C1210 516.869 1208.5 515.371 1206.66 515.371C1204.81 515.371 1203.32 516.869 1203.32 518.716C1203.32 520.564 1204.81 522.062 1206.66 522.062Z" fill="#9871F5"/>
<path d="M1206.66 545.415C1208.5 545.415 1210 543.917 1210 542.069C1210 540.221 1208.5 538.724 1206.66 538.724C1204.81 538.724 1203.32 540.221 1203.32 542.069C1203.32 543.917 1204.81 545.415 1206.66 545.415Z" fill="#9871F5"/>
<path d="M1206.66 568.786C1208.5 568.786 1210 567.288 1210 565.44C1210 563.592 1208.5 562.094 1206.66 562.094C1204.81 562.094 1203.32 563.592 1203.32 565.44C1203.32 567.288 1204.81 568.786 1206.66 568.786Z" fill="#9871F5"/>
<path d="M1206.66 592.138C1208.5 592.138 1210 590.641 1210 588.793C1210 586.945 1208.5 585.447 1206.66 585.447C1204.81 585.447 1203.32 586.945 1203.32 588.793C1203.32 590.641 1204.81 592.138 1206.66 592.138Z" fill="#9871F5"/>
<path d="M1206.66 615.509C1208.5 615.509 1210 614.011 1210 612.163C1210 610.315 1208.5 608.818 1206.66 608.818C1204.81 608.818 1203.32 610.315 1203.32 612.163C1203.32 614.011 1204.81 615.509 1206.66 615.509Z" fill="#9871F5"/>
<path d="M1206.66 638.862C1208.5 638.862 1210 637.364 1210 635.516C1210 633.668 1208.5 632.17 1206.66 632.17C1204.81 632.17 1203.32 633.668 1203.32 635.516C1203.32 637.364 1204.81 638.862 1206.66 638.862Z" fill="#9871F5"/>
</svg>
